HIERARCHY
ROOT Hips
{
    OFFSET 0.000000 0.000000 0.000000
    CHANNELS 6 Xposition Yposition Zposition Zrotation Xrotation Yrotation
    JOINT Spine
    {
        OFFSET -0.000000 14.517291 0.000000
        CHANNELS 3 Zrotation Xrotation Yrotation
        JOINT Spine1
        {
            OFFSET -0.000000 37.558300 0.000000
            CHANNELS 3 Zrotation Xrotation Yrotation
            JOINT Neck
            {
                OFFSET -0.000000 37.404057 3.400369
                CHANNELS 3 Zrotation Xrotation Yrotation
                JOINT Head
                {
                    OFFSET -0.000000 24.785618 -3.540803
                    CHANNELS 3 Zrotation Xrotation Yrotation
                    End Site
                    {
                        OFFSET -0.000000 35.408028 0.000000
                    }
                }
            }
            JOINT LeftShoulder
            {
                OFFSET 6.992933 33.973492 -0.192664
                CHANNELS 3 Zrotation Xrotation Yrotation
                JOINT LeftArm
                {
                    OFFSET 21.527611 0.000000 0.000000
                    CHANNELS 3 Zrotation Xrotation Yrotation
                    JOINT LeftForeArm
                    {
                        OFFSET 56.353916 0.000000 0.000000
                        CHANNELS 3 Zrotation Xrotation Yrotation
                        JOINT LeftHand
                        {
                            OFFSET 47.774071 0.000000 0.000000
                            CHANNELS 3 Zrotation Xrotation Yrotation
                            End Site
                            {
                                OFFSET 26.556021 0.000000 0.000000
                            }
                        }
                    }
                }
            }
            JOINT RightShoulder
            {
                OFFSET -7.065357 33.973492 -0.192664
                CHANNELS 3 Zrotation Xrotation Yrotation
                JOINT RightArm
                {
                    OFFSET -21.527611 0.000000 0.000000
                    CHANNELS 3 Zrotation Xrotation Yrotation
                    JOINT RightForeArm
                    {
                        OFFSET -56.353916 0.000000 0.000000
                        CHANNELS 3 Zrotation Xrotation Yrotation
                        JOINT RightHand
                        {
                            OFFSET -47.774071 0.000000 0.000000
                            CHANNELS 3 Zrotation Xrotation Yrotation
                            End Site
                            {
                                OFFSET -26.556021 0.000000 0.000000
                            }
                        }
                    }
                }
            }
        }
    }
    JOINT LeftUpLeg
    {
        OFFSET 17.704014 0.000000 0.000000
        CHANNELS 3 Zrotation Xrotation Yrotation
        JOINT LeftLeg
        {
            OFFSET -0.000000 -81.181816 0.000000
            CHANNELS 3 Zrotation Xrotation Yrotation
            JOINT LeftFoot
            {
                OFFSET -0.000000 -62.821102 0.000000
                CHANNELS 3 Zrotation Xrotation Yrotation
                JOINT LeftToeBase
                {
                    OFFSET -0.000000 -11.507608 26.556021
                    CHANNELS 3 Zrotation Xrotation Yrotation
                    End Site
                    {
                        OFFSET -0.000000 0.000000 7.081605
                    }
                }
            }
        }
    }
    JOINT RightUpLeg
    {
        OFFSET -17.704014 0.000000 0.000000
        CHANNELS 3 Zrotation Xrotation Yrotation
        JOINT RightLeg
        {
            OFFSET -0.000000 -81.181816 0.000000
            CHANNELS 3 Zrotation Xrotation Yrotation
            JOINT RightFoot
            {
                OFFSET -0.000000 -62.821102 0.000000
                CHANNELS 3 Zrotation Xrotation Yrotation
                JOINT RightToeBase
                {
                    OFFSET -0.000000 -11.507608 26.556021
                    CHANNELS 3 Zrotation Xrotation Yrotation
                    End Site
                    {
                        OFFSET -0.000000 0.000000 7.081605
                    }
                }
            }
        }
    }
}
MOTION
Frames:    7
Frame Time:    0.008333
24.441545    156.518555    -34.912769    1.385876    -0.677674    -43.085808    1.113264    -1.010350    1.097018    0.416231    0.501714    0.359119    14.964685    -3.671064    15.403192    -6.113913    10.279023    13.002031    7.381776    2.988487    -17.090076    -22.875332    -8.253990    -55.405739    27.400709    -52.074177    -47.240852    -17.248158    -40.317459    -30.963921    -5.621964    4.371784    0.273455    33.210991    9.292797    76.618011    5.154289    -3.474838    102.894890    9.734711    -7.858325    23.996731    16.739668    -19.342983    3.311553    -11.315578    17.708889    -4.099676    -8.660766    0.444410    37.957199    0.000000    0.000000    0.000000    -15.170138    2.631536    -7.439644    6.171594    26.175007    -2.913189    5.700831    -21.081709    -17.209597    0.000000    0.000000    0.000000    
24.443176    156.543198    -34.941803    1.386922    -0.636565    -43.078522    1.157916    -1.024548    1.163233    0.376866    0.500336    0.381208    14.939201    -3.625029    15.367598    -6.071406    10.178638    12.972370    7.221942    3.301061    -16.868483    -23.057301    -7.807100    -54.977360    26.638695    -51.789932    -48.334202    -17.200989    -40.045822    -30.664787    -5.615960    4.391908    0.243776    33.221188    9.275525    76.614067    5.142018    -3.519396    102.865150    9.764151    -7.872046    24.059807    16.752672    -19.354429    3.279778    -11.284732    17.634214    -4.089529    -8.692217    0.492723    37.993259    0.000000    0.000000    0.000000    -15.126036    2.618373    -7.434154    6.172821    26.113855    -2.935892    5.686580    -21.024246    -17.212610    0.000000    0.000000    0.000000    
24.444391    156.567642    -34.968647    1.393270    -0.596617    -43.075974    1.195249    -1.044158    1.234253    0.341641    0.498785    0.404755    14.937644    -3.588357    15.346061    -6.063288    10.102891    12.951344    7.054029    3.565229    -16.691740    -23.197256    -7.276127    -54.473083    26.092075    -51.539070    -49.303898    -17.171852    -39.756077    -30.474390    -5.613593    4.398024    0.211482    33.235126    9.273870    76.607079    5.099252    -3.571878    102.825371    9.797233    -7.857565    24.075045    16.765783    -19.362434    3.264427    -11.254717    17.560860    -4.094938    -8.711699    0.548631    38.006630    0.000000    0.000000    0.000000    -15.091503    2.604177    -7.435440    6.179366    26.050844    -2.931046    5.677665    -20.974922    -17.230503    0.000000    0.000000    0.000000    
24.442715    156.591553    -34.994419    1.394200    -0.559490    -43.066551    1.227701    -1.070910    1.293676    0.327638    0.519024    0.424496    14.926913    -3.541255    15.322762    -6.084389    10.012319    12.929234    6.848323    3.802081    -16.516279    -23.378754    -6.795664    -53.953545    25.602758    -51.198017    -50.263088    -17.208668    -39.317074    -30.374912    -5.626717    4.398567    0.194642    33.266232    9.248147    76.599144    5.088562    -3.599864    102.783722    9.837660    -7.856735    24.096821    16.778870    -19.371017    3.237577    -11.232108    17.490038    -4.062273    -8.728004    0.602795    38.007217    0.000000    0.000000    0.000000    -15.054783    2.605127    -7.409917    6.198012    25.975540    -2.945536    5.675734    -20.936453    -17.260580    0.000000    0.000000    0.000000    
24.439583    156.613342    -35.019802    1.394616    -0.523270    -43.056198    1.255942    -1.098836    1.355190    0.324539    0.530509    0.444843    14.907961    -3.476659    15.304628    -6.102244    9.917864    12.916260    6.621704    4.032834    -16.372328    -23.471439    -6.227336    -53.399826    25.481962    -50.881855    -50.955395    -17.078684    -38.863338    -30.278507    -5.654897    4.407458    0.196764    33.288628    9.220372    76.578926    5.047507    -3.653346    102.742317    9.841187    -7.852249    24.107693    16.788939    -19.371243    3.225092    -11.189682    17.412998    -4.076300    -8.753807    0.650959    38.013916    0.000000    0.000000    0.000000    -15.014877    2.609811    -7.417157    6.198319    25.897125    -2.952792    5.661001    -20.887072    -17.275412    0.000000    0.000000    0.000000    
24.436853    156.635773    -35.051109    1.399622    -0.478452    -43.049088    1.298082    -1.140368    1.421729    0.292802    0.554843    0.466793    14.911170    -3.413210    15.289518    -6.136071    9.828973    12.901639    6.419522    4.222421    -16.237402    -23.674994    -5.711240    -52.849113    25.340805    -50.510952    -51.704365    -17.025658    -38.315456    -30.228367    -5.668640    4.402657    0.199655    33.323898    9.176333    76.554016    5.037335    -3.681652    102.702782    9.840623    -7.863278    24.107679    16.808496    -19.385384    3.218274    -11.162032    17.340036    -4.084104    -8.790229    0.696169    38.049725    0.000000    0.000000    0.000000    -14.974079    2.609186    -7.416087    6.212615    25.804146    -2.984653    5.637691    -20.841076    -17.269995    0.000000    0.000000    0.000000    
24.436544    156.654602    -35.080959    1.402239    -0.435721    -43.039532    1.336234    -1.159032    1.493132    0.270972    0.548985    0.490530    14.914913    -3.360019    15.267497    -6.182824    9.758400    12.878605    6.221743    4.428222    -16.105453    -23.864304    -5.149726    -52.292118    25.424099    -50.184120    -52.319839    -17.054262    -37.728310    -30.279854    -5.685139    4.408572    0.171690    33.325787    9.142453    76.554916    5.020117    -3.743378    102.662567    9.847575    -7.895396    24.128345    16.826069    -19.402901    3.226350    -11.128869    17.285479    -4.069081    -8.792151    0.754283    38.018661    0.000000    0.000000    0.000000    -14.931977    2.609699    -7.475050    6.182383    25.727816    -2.937627    5.627755    -20.800760    -17.245358    0.000000    0.000000    0.000000    
